<mxfile host="Electron" agent="Mozilla/5.0 (Windows NT 10.0; Win64; x64) AppleWebKit/537.36 (KHTML, like Gecko) draw.io/26.0.4 Chrome/128.0.6613.186 Electron/32.2.5 Safari/537.36" version="26.0.4">
  <diagram name="Page-1" id="7e4-uUIpgQmPYYuBtMdY">
    <mxGraphModel dx="614" dy="296" grid="1" gridSize="10" guides="1" tooltips="1" connect="1" arrows="1" fold="1" page="1" pageScale="1" pageWidth="1169" pageHeight="827" math="0" shadow="0">
      <root>
        <mxCell id="0" />
        <mxCell id="1" parent="0" />
        <mxCell id="KzWqX3hZPHvttPkqPzAc-1" value="Plateforme OCASS" style="rounded=1;whiteSpace=wrap;html=1;" vertex="1" parent="1">
          <mxGeometry x="380" y="280" width="70" height="40" as="geometry" />
        </mxCell>
        <mxCell id="KzWqX3hZPHvttPkqPzAc-3" value="Gateway LoRaWAN" style="rounded=1;whiteSpace=wrap;html=1;" vertex="1" parent="1">
          <mxGeometry x="490" y="270" width="70" height="60" as="geometry" />
        </mxCell>
        <mxCell id="KzWqX3hZPHvttPkqPzAc-4" value="Serveur de contrôle de ventilation" style="rounded=1;whiteSpace=wrap;html=1;" vertex="1" parent="1">
          <mxGeometry x="475" y="170" width="100" height="60" as="geometry" />
        </mxCell>
        <mxCell id="KzWqX3hZPHvttPkqPzAc-7" value="Système de ventilation" style="rounded=0;whiteSpace=wrap;html=1;" vertex="1" parent="1">
          <mxGeometry x="360" y="175" width="75" height="50" as="geometry" />
        </mxCell>
        <mxCell id="KzWqX3hZPHvttPkqPzAc-10" value="" style="shape=flexArrow;endArrow=classic;html=1;rounded=0;width=5.238095238095238;endSize=2.557142857142857;endWidth=9.886621315192743;entryX=1;entryY=0.5;entryDx=0;entryDy=0;exitX=0;exitY=0.5;exitDx=0;exitDy=0;" edge="1" parent="1" source="KzWqX3hZPHvttPkqPzAc-4" target="KzWqX3hZPHvttPkqPzAc-7">
          <mxGeometry width="50" height="50" relative="1" as="geometry">
            <mxPoint x="620" y="270" as="sourcePoint" />
            <mxPoint x="670" y="220" as="targetPoint" />
          </mxGeometry>
        </mxCell>
        <mxCell id="KzWqX3hZPHvttPkqPzAc-12" value="" style="endArrow=block;dashed=1;endFill=0;endSize=12;html=1;rounded=0;exitX=1;exitY=0.5;exitDx=0;exitDy=0;entryX=0;entryY=0.5;entryDx=0;entryDy=0;" edge="1" parent="1" source="KzWqX3hZPHvttPkqPzAc-1" target="KzWqX3hZPHvttPkqPzAc-3">
          <mxGeometry width="160" relative="1" as="geometry">
            <mxPoint x="560" y="240" as="sourcePoint" />
            <mxPoint x="720" y="240" as="targetPoint" />
          </mxGeometry>
        </mxCell>
        <mxCell id="KzWqX3hZPHvttPkqPzAc-16" value="" style="shape=flexArrow;endArrow=classic;html=1;rounded=0;width=5.238095238095238;endSize=2.557142857142857;endWidth=9.886621315192743;exitX=0.5;exitY=1;exitDx=0;exitDy=0;entryX=0.228;entryY=0.004;entryDx=0;entryDy=0;entryPerimeter=0;" edge="1" parent="1" source="KzWqX3hZPHvttPkqPzAc-7" target="KzWqX3hZPHvttPkqPzAc-19">
          <mxGeometry width="50" height="50" relative="1" as="geometry">
            <mxPoint x="634.89" y="270" as="sourcePoint" />
            <mxPoint x="410" y="250" as="targetPoint" />
            <Array as="points" />
          </mxGeometry>
        </mxCell>
        <mxCell id="KzWqX3hZPHvttPkqPzAc-19" value="Salle blanche" style="shape=umlFrame;whiteSpace=wrap;html=1;pointerEvents=0;width=90;height=15;" vertex="1" parent="1">
          <mxGeometry x="340" y="260" width="250" height="80" as="geometry" />
        </mxCell>
        <mxCell id="KzWqX3hZPHvttPkqPzAc-20" value="" style="endArrow=block;dashed=1;endFill=0;endSize=12;html=1;rounded=0;exitX=0.5;exitY=0;exitDx=0;exitDy=0;entryX=0.5;entryY=1;entryDx=0;entryDy=0;" edge="1" parent="1" source="KzWqX3hZPHvttPkqPzAc-3" target="KzWqX3hZPHvttPkqPzAc-4">
          <mxGeometry width="160" relative="1" as="geometry">
            <mxPoint x="490" y="210" as="sourcePoint" />
            <mxPoint x="530" y="250" as="targetPoint" />
            <Array as="points" />
          </mxGeometry>
        </mxCell>
        <mxCell id="KzWqX3hZPHvttPkqPzAc-21" value="" style="endArrow=block;dashed=1;endFill=0;endSize=12;html=1;rounded=0;exitX=0.5;exitY=0;exitDx=0;exitDy=0;" edge="1" parent="1">
          <mxGeometry width="160" relative="1" as="geometry">
            <mxPoint x="90" y="189.76" as="sourcePoint" />
            <mxPoint x="130" y="189.76" as="targetPoint" />
            <Array as="points" />
          </mxGeometry>
        </mxCell>
        <mxCell id="KzWqX3hZPHvttPkqPzAc-22" value="" style="shape=flexArrow;endArrow=classic;html=1;rounded=0;width=5.238095238095238;endSize=2.557142857142857;endWidth=9.886621315192743;" edge="1" parent="1">
          <mxGeometry width="50" height="50" relative="1" as="geometry">
            <mxPoint x="90" y="239.76" as="sourcePoint" />
            <mxPoint x="130" y="239.76" as="targetPoint" />
            <Array as="points" />
          </mxGeometry>
        </mxCell>
        <mxCell id="KzWqX3hZPHvttPkqPzAc-23" value="Connexion sans fil (LoRa ou WiFi)" style="text;html=1;align=center;verticalAlign=middle;whiteSpace=wrap;rounded=0;" vertex="1" parent="1">
          <mxGeometry x="140" y="175" width="100" height="30" as="geometry" />
        </mxCell>
        <mxCell id="KzWqX3hZPHvttPkqPzAc-24" value="Connexion physique (Câbles ou conduites)" style="text;html=1;align=center;verticalAlign=middle;whiteSpace=wrap;rounded=0;" vertex="1" parent="1">
          <mxGeometry x="140" y="225" width="130" height="30" as="geometry" />
        </mxCell>
        <mxCell id="KzWqX3hZPHvttPkqPzAc-25" value="" style="rounded=0;whiteSpace=wrap;html=1;fillColor=none;" vertex="1" parent="1">
          <mxGeometry x="80" y="165" width="190" height="95" as="geometry" />
        </mxCell>
      </root>
    </mxGraphModel>
  </diagram>
</mxfile>
